<svg width="170" height="90" viewBox="0 0 170 90" fill="none" xmlns="http://www.w3.org/2000/svg">
<rect x="0.5" y="0.5" width="169" height="89" rx="3.5" stroke="#AFB1B8"/>
<path d="M71.3457 81.5096C71.3607 81.51 71.3755 81.5132 71.3891 81.5191C71.4028 81.5251 71.4152 81.5335 71.4254 81.5441L71.6312 81.7611C71.4714 81.9367 71.274 82.0772 71.0524 82.1729C70.7929 82.2774 70.5133 82.3278 70.2319 82.3209C69.9675 82.3261 69.7049 82.2791 69.4603 82.1828C69.2396 82.0943 69.0414 81.9615 68.879 81.7932C68.7132 81.6186 68.5855 81.414 68.5034 81.1914C68.4135 80.9433 68.3692 80.6822 68.3723 80.4195C68.3686 80.1552 68.4166 79.8926 68.5137 79.6452C68.6036 79.4212 68.7391 79.2166 68.9124 79.0434C69.0881 78.8736 69.2982 78.7402 69.5297 78.6513C69.7831 78.5572 70.0528 78.5103 70.3245 78.5132C70.5769 78.5073 70.8279 78.5501 71.0627 78.639C71.2664 78.7237 71.4535 78.8414 71.6157 78.9867L71.4434 79.2185C71.4315 79.2349 71.4167 79.249 71.3997 79.2605C71.3793 79.2738 71.3548 79.2799 71.3302 79.2777C71.3035 79.276 71.2778 79.2674 71.2556 79.2531L71.163 79.1914L71.0344 79.1125C70.9789 79.0832 70.9213 79.0577 70.8621 79.036C70.7858 79.0099 70.7076 78.9893 70.628 78.9744C70.5271 78.9566 70.4246 78.9483 70.3219 78.9497C70.1263 78.9474 69.9322 78.9826 69.7509 79.0533C69.5819 79.1188 69.4294 79.218 69.3034 79.3443C69.1751 79.4787 69.0763 79.6363 69.0127 79.8079C68.9403 80.0043 68.9046 80.2113 68.9073 80.4195C68.9042 80.631 68.9399 80.8414 69.0127 81.041C69.0755 81.2112 69.1725 81.3678 69.2982 81.5022C69.416 81.6274 69.5621 81.7252 69.7252 81.7882C69.8931 81.855 70.0733 81.8885 70.2551 81.8869C70.3601 81.8884 70.465 81.8818 70.5689 81.8671C70.7385 81.8473 70.9012 81.7908 71.0447 81.7019C71.1167 81.6564 71.1847 81.6052 71.2479 81.549C71.2744 81.5248 71.3091 81.5108 71.3457 81.5096V81.5096Z" fill="#AFB1B8"/>
<path d="M77.2871 80.419C77.2903 80.6806 77.2432 80.9406 77.1482 81.1859C77.0644 81.4083 76.9323 81.6113 76.7608 81.7813C76.5892 81.9513 76.382 82.0845 76.1528 82.1722C75.6492 82.3563 75.0925 82.3563 74.589 82.1722C74.3613 82.0832 74.1554 81.9497 73.9845 81.7801C73.8131 81.607 73.68 81.4023 73.5936 81.1785C73.4083 80.6818 73.4083 80.1389 73.5936 79.6422C73.6813 79.4182 73.8141 79.213 73.9845 79.0381C74.1568 78.8739 74.3626 78.7455 74.589 78.6608C75.0919 78.4734 75.6499 78.4734 76.1528 78.6608C76.3813 78.7498 76.588 78.8833 76.7598 79.0529C76.9292 79.2243 77.0612 79.4263 77.1482 79.6472C77.2435 79.8941 77.2906 80.1557 77.2871 80.419ZM76.747 80.419C76.751 80.2097 76.718 80.0012 76.6492 79.8025C76.5916 79.6323 76.4979 79.4753 76.374 79.3414C76.2534 79.2147 76.1049 79.1153 75.9393 79.0504C75.5734 78.9156 75.1684 78.9156 74.8024 79.0504C74.6368 79.1153 74.4884 79.2147 74.3678 79.3414C74.2422 79.4745 74.1475 79.6317 74.09 79.8025C73.9591 80.2039 73.9591 80.634 74.09 81.0354C74.148 81.206 74.2427 81.3631 74.3678 81.4966C74.4885 81.6225 74.637 81.721 74.8024 81.7851C75.169 81.9165 75.5728 81.9165 75.9393 81.7851C76.1048 81.721 76.2533 81.6225 76.374 81.4966C76.4974 81.3623 76.591 81.2054 76.6492 81.0354C76.7183 80.8368 76.7513 80.6283 76.747 80.419V80.419Z" fill="#AFB1B8"/>
<path d="M81.3408 81.0655L81.3948 81.2035C81.4154 81.1542 81.4334 81.1098 81.4539 81.0655C81.4736 81.0191 81.4959 80.9738 81.5208 80.9298L82.8352 78.6393C82.8609 78.5998 82.884 78.5752 82.9098 78.5678C82.9447 78.5576 82.9813 78.5534 83.0178 78.5554H83.4062V82.281H82.9458V79.5417C82.9458 79.5072 82.9458 79.4677 82.9458 79.4258C82.9433 79.3831 82.9433 79.3403 82.9458 79.2976L81.6237 81.6202C81.6069 81.655 81.58 81.6844 81.5463 81.705C81.5125 81.7255 81.4733 81.7363 81.4334 81.7361H81.3588C81.3187 81.7366 81.2794 81.726 81.2456 81.7054C81.2118 81.6848 81.185 81.6552 81.1684 81.6202L79.8078 79.2828C79.8078 79.3272 79.8078 79.3716 79.8078 79.4159C79.8078 79.4603 79.8078 79.4998 79.8078 79.5343V82.2736H79.3628V78.5554H79.7512C79.7877 78.5534 79.8243 78.5576 79.8592 78.5678C79.8911 78.5829 79.9165 78.6082 79.9312 78.6393L81.2739 80.9323C81.3003 80.9747 81.3227 81.0192 81.3408 81.0655V81.0655Z" fill="#AFB1B8"/>
<path d="M86.2869 80.8802V82.2756H85.7725V78.5553H86.9196C87.1362 78.5513 87.3521 78.5787 87.5601 78.6367C87.7266 78.6819 87.881 78.7609 88.0128 78.8684C88.127 78.9692 88.2151 79.0941 88.27 79.2333C88.3307 79.3851 88.3604 79.5466 88.3575 79.7091C88.3597 79.8723 88.3274 80.0342 88.2623 80.185C88.2005 80.3277 88.1054 80.455 87.9845 80.5572C87.8525 80.6692 87.6974 80.7532 87.5292 80.8038C87.329 80.8651 87.1195 80.8943 86.9093 80.8901L86.2869 80.8802ZM86.2869 80.4808H86.9093C87.0446 80.4825 87.1792 80.4633 87.308 80.4241C87.4143 80.3898 87.5123 80.3353 87.5961 80.2638C87.6734 80.1956 87.7332 80.1113 87.771 80.0173C87.8131 79.9179 87.8341 79.8115 87.8327 79.7042C87.8387 79.6008 87.8211 79.4973 87.7811 79.4011C87.7412 79.3049 87.6798 79.2182 87.6013 79.147C87.4047 78.9999 87.1579 78.9287 86.9093 78.9473H86.2869V80.4808Z" fill="#AFB1B8"/>
<path d="M93.2007 82.2809H92.7943C92.7536 82.2824 92.7135 82.2702 92.6812 82.2464C92.652 82.2231 92.6291 82.1935 92.6143 82.1601L92.2645 81.26H90.5077L90.145 82.1601C90.1317 82.193 90.1095 82.2219 90.0807 82.2439C90.048 82.2691 90.007 82.2823 89.965 82.2809H89.5586L91.1019 78.5549H91.6369L93.2007 82.2809ZM90.6543 80.8975H92.105L91.4928 79.381C91.4461 79.2669 91.4074 79.1499 91.3771 79.0308L91.3179 79.2256C91.2999 79.2848 91.2794 79.3391 91.2614 79.3835L90.6543 80.8975Z" fill="#AFB1B8"/>
<path d="M95.4233 78.5723C95.4541 78.5884 95.4805 78.6112 95.5005 78.6389L97.7511 81.4475C97.7511 81.4031 97.7511 81.3587 97.7511 81.3168C97.7511 81.2748 97.7511 81.2329 97.7511 81.1935V78.555H98.2115V82.2809H97.9543C97.9178 82.282 97.8816 82.2744 97.8489 82.2587C97.8171 82.241 97.7892 82.2175 97.7666 82.1897L95.5185 79.3835C95.521 79.4262 95.521 79.4691 95.5185 79.5118C95.5185 79.5537 95.5185 79.5907 95.5185 79.6252V82.2809H95.0581V78.555H95.3308C95.3626 78.5542 95.3942 78.5601 95.4233 78.5723V78.5723Z" fill="#AFB1B8"/>
<path d="M102.003 80.7991V82.2786H101.488V80.7991L100.066 78.5552H100.526C100.566 78.5529 100.605 78.5643 100.637 78.5872C100.665 78.6112 100.688 78.6395 100.706 78.6711L101.596 80.1185C101.632 80.1802 101.663 80.2369 101.689 80.2911C101.715 80.3454 101.735 80.3972 101.753 80.4489L101.82 80.2887C101.845 80.2301 101.874 80.1732 101.908 80.1185L102.785 78.6612C102.803 78.6321 102.826 78.6056 102.852 78.5823C102.882 78.5568 102.922 78.5435 102.962 78.5453H103.428L102.003 80.7991Z" fill="#AFB1B8"/>
<path d="M81.0859 72.3025C81.3097 72.3297 81.5361 72.3519 81.765 72.3716C85.2356 70.8833 88.1716 68.4475 90.206 65.3685C92.2404 62.2895 93.283 58.704 93.2033 55.0602L89.3785 51.3938C90.1562 55.2733 89.7925 59.2838 88.3279 62.9764C86.8634 66.669 84.3559 69.8982 81.0859 72.3025V72.3025Z" fill="#AFB1B8"/>
<path d="M79.7202 72.1321L79.8231 72.1519C83.3173 69.756 85.9814 66.4104 87.4708 62.5477C88.9601 58.685 89.2063 54.4828 88.1774 50.4845L82.7296 45.2625C84.9331 49.5549 85.82 54.3587 85.2873 59.1154C84.7546 63.872 82.824 68.3859 79.7202 72.1321V72.1321Z" fill="#AFB1B8"/>
<path d="M98.1959 59.3657C97.2704 63.3694 95.0225 66.9802 91.7861 69.6621C90.841 70.4496 89.8214 71.1512 88.7407 71.7578C91.3761 71.0153 93.7983 69.7026 95.8207 67.9208C97.8432 66.1391 99.4117 63.9359 100.405 61.4812L98.1959 59.3657Z" fill="#AFB1B8"/>
<path d="M97.3292 58.776L94.1835 55.7605C94.1233 59.1985 93.1037 62.5584 91.2306 65.4909C89.3575 68.4233 86.6993 70.8214 83.5322 72.4358H83.5477C84.2534 72.4355 84.9586 72.3952 85.6594 72.315C88.6192 71.1569 91.2339 69.3145 93.2702 66.9521C95.3064 64.5896 96.7009 61.7807 97.3292 58.776V58.776Z" fill="#AFB1B8"/>
<path d="M80.1757 43.0599L76.4229 39.4575C73.0681 40.7003 70.1828 42.8849 68.1446 45.7257C66.1065 48.5664 65.0105 51.9307 65 55.3785V55.3785C65.0126 59.1881 66.3502 62.8849 68.8012 65.8837C71.2521 68.8826 74.6764 71.0122 78.5321 71.9355C81.974 67.9157 83.9892 62.9485 84.2847 57.7556C84.5803 52.5628 83.1409 47.4149 80.1757 43.0599V43.0599Z" fill="#AFB1B8"/>
<path d="M106 58.2214C105.987 53.7014 104.108 49.3703 100.773 46.1742C97.4394 42.9781 92.9213 41.1768 88.2062 41.1638V41.1638C86.0274 41.1617 83.8671 41.5471 81.835 42.3005L104.812 64.3264C105.599 62.3794 106.002 60.3094 106 58.2214V58.2214Z" fill="#AFB1B8"/>
</svg>
