<svg width="170" height="90" viewBox="0 0 170 90" fill="none" xmlns="http://www.w3.org/2000/svg">
<rect x="0.5" y="0.5" width="169" height="89" rx="3.5" stroke="#2196F3"/>
<path d="M57.4022 52.3672H57.3995C55.1372 52.3672 53.3032 54.1653 53.3032 56.3834V56.3861C53.3032 58.6042 55.1372 60.4023 57.3995 60.4023H57.4022C59.6645 60.4023 61.4985 58.6042 61.4985 56.3861V56.3834C61.4985 54.1653 59.6645 52.3672 57.4022 52.3672Z" fill="#2196F3"/>
<path d="M87.6368 51.083C87.6304 48.0021 86.3795 45.0492 84.1579 42.8704C81.9363 40.6917 78.925 39.4645 75.7828 39.4575V39.4575C72.6397 39.4631 69.6269 40.6897 67.4042 42.8686C65.1814 45.0475 63.9298 48.0012 63.9233 51.083V51.083V68.0725C63.9233 68.0725 87.6341 65.4832 87.6368 51.0857V51.083Z" fill="#2196F3"/>
<path d="M45 73.6492C45.0057 75.793 45.8766 77.8474 47.4223 79.3635C48.968 80.8796 51.0629 81.7342 53.2492 81.7405V81.7405C55.4351 81.7342 57.5296 80.88 59.0752 79.3644C60.6208 77.8489 61.492 75.7952 61.4984 73.6519V73.6519V61.8301C61.4984 61.8301 45 63.6331 45 73.6492ZM53.2492 75.7674C52.822 75.7674 52.4043 75.6431 52.0491 75.4104C51.6938 75.1776 51.417 74.8468 51.2535 74.4598C51.09 74.0728 51.0472 73.6469 51.1305 73.236C51.2139 72.8251 51.4196 72.4477 51.7217 72.1515C52.0238 71.8553 52.4087 71.6535 52.8278 71.5718C53.2468 71.4901 53.6812 71.532 54.0759 71.6923C54.4706 71.8527 54.808 72.1241 55.0453 72.4725C55.2827 72.8208 55.4094 73.2303 55.4094 73.6492C55.4105 73.9281 55.3554 74.2043 55.2473 74.4622C55.1392 74.7201 54.9803 74.9546 54.7796 75.1521C54.5789 75.3496 54.3404 75.5064 54.0777 75.6133C53.8151 75.7203 53.5336 75.7753 53.2492 75.7753V75.7674Z" fill="#2196F3"/>
<path d="M70.0889 74.4268H68.4014V76.1699H67.5225V71.9043H70.2998V72.6162H68.4014V73.7178H70.0889V74.4268ZM74.3135 74.1338C74.3135 74.5537 74.2393 74.9219 74.0908 75.2383C73.9424 75.5547 73.7295 75.7988 73.4521 75.9707C73.1768 76.1426 72.8604 76.2285 72.5029 76.2285C72.1494 76.2285 71.834 76.1436 71.5566 75.9736C71.2793 75.8037 71.0645 75.5615 70.9121 75.2471C70.7598 74.9307 70.6826 74.5674 70.6807 74.1572V73.9463C70.6807 73.5264 70.7559 73.1572 70.9062 72.8389C71.0586 72.5186 71.2725 72.2734 71.5479 72.1035C71.8252 71.9316 72.1416 71.8457 72.4971 71.8457C72.8525 71.8457 73.168 71.9316 73.4434 72.1035C73.7207 72.2734 73.9346 72.5186 74.085 72.8389C74.2373 73.1572 74.3135 73.5254 74.3135 73.9434V74.1338ZM73.4229 73.9404C73.4229 73.4932 73.3428 73.1533 73.1826 72.9209C73.0225 72.6885 72.7939 72.5723 72.4971 72.5723C72.2021 72.5723 71.9746 72.6875 71.8145 72.918C71.6543 73.1465 71.5732 73.4824 71.5713 73.9258V74.1338C71.5713 74.5693 71.6514 74.9072 71.8115 75.1475C71.9717 75.3877 72.2021 75.5078 72.5029 75.5078C72.7979 75.5078 73.0244 75.3926 73.1826 75.1621C73.3408 74.9297 73.4209 74.5918 73.4229 74.1484V73.9404ZM77.1641 75.0508C77.1641 74.8848 77.1055 74.7578 76.9883 74.6699C76.8711 74.5801 76.6602 74.4863 76.3555 74.3887C76.0508 74.2891 75.8096 74.1914 75.6318 74.0957C75.1475 73.834 74.9053 73.4814 74.9053 73.0381C74.9053 72.8076 74.9697 72.6025 75.0986 72.4229C75.2295 72.2412 75.416 72.0996 75.6582 71.998C75.9023 71.8965 76.1758 71.8457 76.4785 71.8457C76.7832 71.8457 77.0547 71.9014 77.293 72.0127C77.5312 72.1221 77.7158 72.2773 77.8467 72.4785C77.9795 72.6797 78.0459 72.9082 78.0459 73.1641H77.167C77.167 72.9688 77.1055 72.8174 76.9824 72.71C76.8594 72.6006 76.6865 72.5459 76.4639 72.5459C76.249 72.5459 76.082 72.5918 75.9629 72.6836C75.8438 72.7734 75.7842 72.8926 75.7842 73.041C75.7842 73.1797 75.8535 73.2959 75.9922 73.3896C76.1328 73.4834 76.3389 73.5713 76.6104 73.6533C77.1104 73.8037 77.4746 73.9902 77.7031 74.2129C77.9316 74.4355 78.0459 74.7129 78.0459 75.0449C78.0459 75.4141 77.9062 75.7041 77.627 75.915C77.3477 76.124 76.9717 76.2285 76.499 76.2285C76.1709 76.2285 75.8721 76.1689 75.6025 76.0498C75.333 75.9287 75.127 75.7637 74.9844 75.5547C74.8438 75.3457 74.7734 75.1035 74.7734 74.8281H75.6553C75.6553 75.2988 75.9365 75.5342 76.499 75.5342C76.708 75.5342 76.8711 75.4922 76.9883 75.4082C77.1055 75.3223 77.1641 75.2031 77.1641 75.0508ZM81.8545 72.6162H80.5479V76.1699H79.6689V72.6162H78.3799V71.9043H81.8545V72.6162ZM84.9248 74.3213H83.2373V75.4639H85.2178V76.1699H82.3584V71.9043H85.2119V72.6162H83.2373V73.6328H84.9248V74.3213ZM87.3125 74.6084H86.6123V76.1699H85.7334V71.9043H87.3184C87.8223 71.9043 88.2109 72.0166 88.4844 72.2412C88.7578 72.4658 88.8945 72.7832 88.8945 73.1934C88.8945 73.4844 88.8311 73.7275 88.7041 73.9229C88.5791 74.1162 88.3887 74.2705 88.1328 74.3857L89.0557 76.1289V76.1699H88.1123L87.3125 74.6084ZM86.6123 73.8965H87.3213C87.542 73.8965 87.7129 73.8408 87.834 73.7295C87.9551 73.6162 88.0156 73.4609 88.0156 73.2637C88.0156 73.0625 87.958 72.9043 87.8428 72.7891C87.7295 72.6738 87.5547 72.6162 87.3184 72.6162H86.6123V73.8965ZM91.9385 74.667V76.1699H91.0596V71.9043H92.7236C93.0439 71.9043 93.3252 71.9629 93.5674 72.0801C93.8115 72.1973 93.999 72.3643 94.1299 72.5811C94.2607 72.7959 94.3262 73.041 94.3262 73.3164C94.3262 73.7344 94.1826 74.0645 93.8955 74.3066C93.6104 74.5469 93.2148 74.667 92.709 74.667H91.9385ZM91.9385 73.9551H92.7236C92.9561 73.9551 93.1328 73.9004 93.2539 73.791C93.377 73.6816 93.4385 73.5254 93.4385 73.3223C93.4385 73.1133 93.377 72.9443 93.2539 72.8154C93.1309 72.6865 92.9609 72.6201 92.7441 72.6162H91.9385V73.9551ZM97.499 74.3213H95.8115V75.4639H97.792V76.1699H94.9326V71.9043H97.7861V72.6162H95.8115V73.6328H97.499V74.3213ZM101.577 72.6162H100.271V76.1699H99.3916V72.6162H98.1025V71.9043H101.577V72.6162ZM104.647 74.3213H102.96V75.4639H104.94V76.1699H102.081V71.9043H104.935V72.6162H102.96V73.6328H104.647V74.3213ZM107.035 74.6084H106.335V76.1699H105.456V71.9043H107.041C107.545 71.9043 107.934 72.0166 108.207 72.2412C108.48 72.4658 108.617 72.7832 108.617 73.1934C108.617 73.4844 108.554 73.7275 108.427 73.9229C108.302 74.1162 108.111 74.2705 107.855 74.3857L108.778 76.1289V76.1699H107.835L107.035 74.6084ZM106.335 73.8965H107.044C107.265 73.8965 107.436 73.8408 107.557 73.7295C107.678 73.6162 107.738 73.4609 107.738 73.2637C107.738 73.0625 107.681 72.9043 107.565 72.7891C107.452 72.6738 107.277 72.6162 107.041 72.6162H106.335V73.8965ZM111.5 75.0508C111.5 74.8848 111.441 74.7578 111.324 74.6699C111.207 74.5801 110.996 74.4863 110.691 74.3887C110.387 74.2891 110.146 74.1914 109.968 74.0957C109.483 73.834 109.241 73.4814 109.241 73.0381C109.241 72.8076 109.306 72.6025 109.435 72.4229C109.565 72.2412 109.752 72.0996 109.994 71.998C110.238 71.8965 110.512 71.8457 110.814 71.8457C111.119 71.8457 111.391 71.9014 111.629 72.0127C111.867 72.1221 112.052 72.2773 112.183 72.4785C112.315 72.6797 112.382 72.9082 112.382 73.1641H111.503C111.503 72.9688 111.441 72.8174 111.318 72.71C111.195 72.6006 111.022 72.5459 110.8 72.5459C110.585 72.5459 110.418 72.5918 110.299 72.6836C110.18 72.7734 110.12 72.8926 110.12 73.041C110.12 73.1797 110.189 73.2959 110.328 73.3896C110.469 73.4834 110.675 73.5713 110.946 73.6533C111.446 73.8037 111.811 73.9902 112.039 74.2129C112.268 74.4355 112.382 74.7129 112.382 75.0449C112.382 75.4141 112.242 75.7041 111.963 75.915C111.684 76.124 111.308 76.2285 110.835 76.2285C110.507 76.2285 110.208 76.1689 109.938 76.0498C109.669 75.9287 109.463 75.7637 109.32 75.5547C109.18 75.3457 109.109 75.1035 109.109 74.8281H109.991C109.991 75.2988 110.272 75.5342 110.835 75.5342C111.044 75.5342 111.207 75.4922 111.324 75.4082C111.441 75.3223 111.5 75.2031 111.5 75.0508Z" fill="#2196F3"/>
</svg>
