<svg width="170" height="90" viewBox="0 0 170 90" fill="none" xmlns="http://www.w3.org/2000/svg">
<rect x="0.5" y="0.5" width="169" height="89" rx="3.5" stroke="#AFB1B8"/>
<path d="M69 35.4329L76.3076 42.3934H96.6924V61.8102L104 68.7708V35.4329H69Z" fill="#AFB1B8"/>
<path d="M63 42.1003V74.4856H97V61.6127L76.5231 42.1084L63 42.1003ZM90.5231 69.7484H68.3801V47.9677H69.9453V68.2736H90.5231V69.7484Z" fill="#AFB1B8"/>
<path d="M72.791 80.4734L73.6089 78.7888H74.2925L73.1011 81.0349V82.3435H72.481V81.0349L71.2871 78.7888H71.9731L72.791 80.4734ZM76.3018 81.5159H74.9248L74.6367 82.3435H73.9946L75.3374 78.7888H75.8916L77.2368 82.3435H76.5923L76.3018 81.5159ZM75.0981 81.0178H76.1284L75.6133 79.5432L75.0981 81.0178ZM78.7358 81.384C78.7358 81.2196 78.7806 81.0691 78.8701 80.9324C78.9596 80.794 79.1362 80.6305 79.3999 80.4417C79.2616 80.2675 79.1647 80.1194 79.1094 79.9973C79.0557 79.8752 79.0288 79.7572 79.0288 79.6433C79.0288 79.365 79.1134 79.1453 79.2827 78.9841C79.452 78.8214 79.6799 78.74 79.9663 78.74C80.2251 78.74 80.4367 78.8165 80.6011 78.9695C80.7671 79.1208 80.8501 79.3088 80.8501 79.5334C80.8501 79.6816 80.8127 79.8183 80.7378 79.9436C80.6629 80.0673 80.54 80.191 80.3691 80.3147L80.1274 80.4905L80.8135 81.301C80.9128 81.1057 80.9624 80.8884 80.9624 80.6492H81.4775C81.4775 81.087 81.375 81.4459 81.1699 81.7258L81.6924 82.3435H81.0039L80.8037 82.1067C80.5498 82.2971 80.2471 82.3923 79.8955 82.3923C79.5439 82.3923 79.2624 82.2996 79.0508 82.114C78.8408 81.9268 78.7358 81.6835 78.7358 81.384ZM79.9126 81.9187C80.1128 81.9187 80.3 81.852 80.4741 81.7185L79.6978 80.803L79.6221 80.8567C79.4268 81.0048 79.3291 81.1741 79.3291 81.3645C79.3291 81.5289 79.382 81.6624 79.4878 81.7649C79.5936 81.8674 79.7352 81.9187 79.9126 81.9187ZM79.5854 79.6287C79.5854 79.7654 79.6693 79.9371 79.8369 80.1438L80.1079 79.9583L80.1836 79.8972C80.2845 79.8077 80.335 79.693 80.335 79.553C80.335 79.4602 80.3 79.3813 80.23 79.3162C80.16 79.2494 80.0713 79.2161 79.9639 79.2161C79.8483 79.2161 79.7563 79.2551 79.688 79.3333C79.6196 79.4114 79.5854 79.5098 79.5854 79.6287ZM86.043 81.1863C86.0072 81.5655 85.8672 81.8617 85.623 82.075C85.3789 82.2865 85.0542 82.3923 84.6489 82.3923C84.3657 82.3923 84.1159 82.3256 83.8994 82.1921C83.6846 82.057 83.5186 81.8658 83.4014 81.6184C83.2842 81.371 83.2231 81.0837 83.2183 80.7566V80.4246C83.2183 80.0893 83.2777 79.7939 83.3965 79.5383C83.5153 79.2828 83.6854 79.0859 83.9067 78.9475C84.1297 78.8092 84.3869 78.74 84.6782 78.74C85.0705 78.74 85.3862 78.8466 85.6255 79.0598C85.8647 79.273 86.0039 79.5741 86.043 79.9631H85.4277C85.3984 79.7076 85.3236 79.5237 85.2031 79.4114C85.0843 79.2974 84.9093 79.2405 84.6782 79.2405C84.4097 79.2405 84.203 79.3389 84.0581 79.5359C83.9149 79.7312 83.8416 80.0185 83.8384 80.3977V80.7126C83.8384 81.0968 83.9067 81.3897 84.0435 81.5916C84.1818 81.7934 84.3836 81.8943 84.6489 81.8943C84.8914 81.8943 85.0737 81.8398 85.1958 81.7307C85.3179 81.6217 85.3952 81.4402 85.4277 81.1863H86.043ZM89.4341 80.6589C89.4341 81.0072 89.3739 81.3132 89.2534 81.5769C89.133 81.8389 88.9604 82.0408 88.7358 82.1824C88.5129 82.3223 88.2557 82.3923 87.9644 82.3923C87.6763 82.3923 87.4191 82.3223 87.1929 82.1824C86.9683 82.0408 86.7941 81.8398 86.6704 81.5793C86.5483 81.3189 86.4865 81.0186 86.4849 80.6785V80.4783C86.4849 80.1316 86.5459 79.8256 86.668 79.5603C86.7917 79.295 86.965 79.0924 87.188 78.9524C87.4126 78.8108 87.6698 78.74 87.9595 78.74C88.2492 78.74 88.5055 78.81 88.7285 78.95C88.9531 79.0883 89.1265 79.2885 89.2485 79.5505C89.3706 79.811 89.4325 80.1145 89.4341 80.4612V80.6589ZM88.8164 80.4734C88.8164 80.0795 88.7415 79.7776 88.5918 79.5676C88.4437 79.3577 88.2329 79.2527 87.9595 79.2527C87.6925 79.2527 87.4834 79.3577 87.332 79.5676C87.1823 79.776 87.1058 80.0714 87.1025 80.4539V80.6589C87.1025 81.0496 87.1782 81.3515 87.3296 81.5647C87.4826 81.7779 87.6942 81.8845 87.9644 81.8845C88.2378 81.8845 88.4478 81.7804 88.5942 81.572C88.7424 81.3637 88.8164 81.0593 88.8164 80.6589V80.4734Z" fill="#AFB1B8"/>
</svg>
