<svg width="170" height="90" viewBox="0 0 170 90" fill="none" xmlns="http://www.w3.org/2000/svg">
<rect x="0.5" y="0.5" width="169" height="89" rx="3.5" stroke="#AFB1B8"/>
<path d="M85.7404 58.9302C85.3224 58.3162 85.1225 57.5906 85.1699 56.8603V53.8593C85.1699 52.9394 85.359 52.2403 85.7372 51.762C86.1154 51.2837 86.7649 51.0456 87.6858 51.0476C88.5512 51.0476 89.1654 51.2511 89.5287 51.6582C89.9249 52.1776 90.1176 52.8127 90.0735 53.4533V54.1585H88.5255V53.4441C88.531 53.2103 88.516 52.9765 88.4807 52.745C88.4584 52.5868 88.3804 52.4404 88.2595 52.3298C88.1006 52.2106 87.9003 52.1529 87.6987 52.168C87.4866 52.153 87.2762 52.2139 87.1089 52.339C86.9741 52.4615 86.8842 52.622 86.8525 52.7969C86.8081 53.0419 86.7878 53.2902 86.7916 53.5388V57.1809C86.7672 57.5322 86.8355 57.8838 86.9904 58.2036C87.0673 58.3117 87.1743 58.3975 87.2993 58.4514C87.4243 58.5053 87.5625 58.5252 87.6987 58.5089C87.897 58.5244 88.0937 58.4652 88.2467 58.344C88.3728 58.2248 88.454 58.0691 88.4775 57.9013C88.5136 57.6597 88.5297 57.4157 88.5255 57.1717V56.4329H90.0735V57.1076C90.117 57.7754 89.9289 58.4382 89.5383 58.9943C89.1825 59.44 88.5768 59.6628 87.6858 59.6628C86.7949 59.6628 86.1218 59.4247 85.7404 58.9302Z" fill="#AFB1B8"/>
<path d="M92.1856 58.9607C91.7946 58.4936 91.5991 57.8128 91.5991 56.9122V53.7555C91.5991 52.8641 91.7946 52.1894 92.1856 51.7315C92.5766 51.2735 93.2304 51.0456 94.147 51.0476C95.0572 51.0476 95.7078 51.2756 96.0988 51.7315C96.4898 52.1894 96.6885 52.8641 96.6885 53.7555V56.9122C96.6885 57.8036 96.4898 58.4875 96.0924 58.9576C95.695 59.4278 95.0476 59.6628 94.147 59.6628C93.2464 59.6628 92.5798 59.4247 92.1856 58.9607ZM94.8681 58.2036C95.0081 57.911 95.0719 57.5905 95.054 57.2694V53.4044C95.072 53.0896 95.0093 52.7752 94.8713 52.4886C94.7928 52.3781 94.6832 52.2909 94.5551 52.2369C94.4271 52.1829 94.2856 52.1644 94.147 52.1833C94.0079 52.1648 93.8662 52.1836 93.7377 52.2375C93.6093 52.2915 93.4991 52.3784 93.4195 52.4886C93.2786 52.7744 93.2147 53.0892 93.2336 53.4044V57.2877C93.2141 57.6089 93.278 57.9297 93.4195 58.2219C93.5097 58.3204 93.6211 58.3993 93.746 58.4534C93.8709 58.5075 94.0066 58.5354 94.1438 58.5354C94.281 58.5354 94.4167 58.5075 94.5416 58.4534C94.6665 58.3993 94.7779 58.3204 94.8681 58.2219V58.2036Z" fill="#AFB1B8"/>
<path d="M98.5505 51.1396H100.217L101.47 56.9638L102.752 51.1396H104.374L104.537 59.5461H103.339L103.211 53.7037L101.973 59.5461H101.012L99.7299 53.6824L99.6114 59.5461H98.3999L98.5505 51.1396Z" fill="#AFB1B8"/>
<path d="M106.406 51.1396H109.002C110.498 51.1396 111.245 51.9353 111.245 53.5267C111.245 55.0509 110.458 55.812 108.883 55.8099H107.999V59.5461H106.396L106.406 51.1396ZM108.624 54.7324C108.782 54.7515 108.943 54.7377 109.095 54.6918C109.247 54.646 109.387 54.5692 109.505 54.4668C109.689 54.1829 109.77 53.8495 109.736 53.5175C109.744 53.2611 109.719 53.0047 109.659 52.7544C109.636 52.6708 109.596 52.5924 109.541 52.5237C109.486 52.4551 109.417 52.3976 109.339 52.3545C109.116 52.2529 108.87 52.2067 108.624 52.2202H108.002V54.7324H108.624Z" fill="#AFB1B8"/>
<path d="M113.556 51.1396H115.277L117.043 59.5461H115.549L115.2 57.6078H113.665L113.306 59.5461H111.79L113.556 51.1396ZM115.027 56.6341L114.428 53.1054L113.828 56.6341H115.027Z" fill="#AFB1B8"/>
<path d="M118.469 51.1396H119.591L121.738 55.9351V51.1396H123.068V59.5461H122.001L119.841 54.5401V59.5461H118.466L118.469 51.1396Z" fill="#AFB1B8"/>
<path d="M126.184 56.3409L124.398 51.1514H125.902L126.991 54.4849L128.014 51.1514H129.485L127.722 56.3409V59.5461H126.184V56.3409Z" fill="#AFB1B8"/>
<path d="M88.2146 63.2219V63.6615H86.907V67.0774H86.3589V63.6615H85.0449V63.2219H88.2146Z" fill="#AFB1B8"/>
<path d="M92.3141 67.0778H91.891C91.8481 67.0804 91.8057 67.0673 91.7724 67.0412C91.7404 67.0188 91.7159 66.988 91.7019 66.9527L91.3238 66.0369H89.5097L89.1316 66.9527C89.1208 66.991 89.1011 67.0264 89.0739 67.0564C89.0403 67.082 88.9982 67.095 88.9553 67.0931H88.5322L90.1347 63.2378H90.6924L92.3141 67.0778ZM89.6604 65.6462H91.1731L90.5321 64.0772C90.4848 63.9586 90.4452 63.8373 90.4135 63.714C90.3911 63.7872 90.3719 63.8574 90.3526 63.9185L90.295 64.0803L89.6604 65.6462Z" fill="#AFB1B8"/>
<path d="M95.0766 66.699C95.177 66.704 95.2775 66.704 95.3779 66.699C95.4645 66.6905 95.5503 66.6752 95.6343 66.6532C95.7128 66.6348 95.7899 66.6114 95.865 66.583C95.9356 66.5555 96.0061 66.5219 96.0798 66.4883V65.6213H95.4388C95.4229 65.6221 95.4071 65.6199 95.3922 65.6146C95.3773 65.6094 95.3637 65.6012 95.3523 65.5907C95.3417 65.5821 95.3334 65.5713 95.3279 65.5591C95.3223 65.5469 95.3197 65.5338 95.3202 65.5205V65.2244H96.5637V66.702C96.4622 66.7712 96.355 66.8324 96.2432 66.8852C96.129 66.9389 96.0099 66.9828 95.8875 67.0165C95.7564 67.0532 95.6224 67.0798 95.4869 67.0959C95.3315 67.1123 95.1753 67.1204 95.0189 67.1203C94.7425 67.1225 94.4683 67.0738 94.2113 66.9768C93.9714 66.8849 93.7534 66.7478 93.5703 66.5738C93.3919 66.398 93.2514 66.1905 93.1569 65.9632C93.0559 65.7077 93.0059 65.4364 93.0095 65.1633C93.0061 64.8886 93.055 64.6155 93.1537 64.3573C93.2459 64.1288 93.3866 63.921 93.5671 63.7467C93.75 63.5733 93.9681 63.4372 94.2081 63.3468C94.4825 63.2485 94.7738 63.1998 95.067 63.2033C95.2162 63.2031 95.3652 63.2144 95.5125 63.2369C95.6428 63.2571 95.7706 63.2898 95.8939 63.3346C96.006 63.3747 96.1134 63.4259 96.2144 63.4872C96.3126 63.5475 96.4058 63.6148 96.4932 63.6887L96.3394 63.9269C96.3273 63.9486 96.3094 63.9669 96.2874 63.9798C96.2654 63.9927 96.2402 63.9997 96.2144 64.0001C96.1789 63.999 96.1445 63.9885 96.115 63.9696C96.067 63.9452 96.0157 63.9146 95.958 63.878C95.8898 63.8373 95.818 63.8026 95.7433 63.7742C95.6477 63.7377 95.5491 63.7091 95.4484 63.6887C95.3142 63.6652 95.1779 63.6539 95.0414 63.6551C94.8299 63.6529 94.62 63.6892 94.4228 63.762C94.2445 63.8302 94.0838 63.9343 93.9517 64.0673C93.8189 64.2059 93.7174 64.3691 93.6536 64.5466C93.5105 64.9642 93.5105 65.4143 93.6536 65.8319C93.7238 66.0132 93.833 66.1786 93.9741 66.3174C94.1056 66.4496 94.2651 66.5537 94.4421 66.6227C94.6458 66.6893 94.8619 66.7153 95.0766 66.699V66.699Z" fill="#AFB1B8"/>
<path d="M100.185 66.6378H101.935V67.0774H99.6499V63.2219H100.198L100.185 66.6378Z" fill="#AFB1B8"/>
<path d="M103.756 67.0774H103.208V63.2219H103.756V67.0774Z" fill="#AFB1B8"/>
<path d="M105.794 63.2401C105.826 63.2578 105.855 63.2817 105.877 63.3103L108.22 66.2167C108.217 66.171 108.217 66.1251 108.22 66.0793C108.22 66.0366 108.22 65.9939 108.22 65.9542V63.2065H108.698V67.0777H108.422C108.381 67.0808 108.34 67.0734 108.303 67.0563C108.27 67.0371 108.241 67.0122 108.217 66.983L105.877 64.0797C105.877 64.1255 105.877 64.1682 105.877 64.211C105.877 64.2537 105.877 64.2934 105.877 64.33V67.0777H105.419V63.2218H105.704C105.735 63.2219 105.766 63.2281 105.794 63.2401V63.2401Z" fill="#AFB1B8"/>
<path d="M112.732 63.2219V63.6463H110.79V64.9192H112.364V65.3283H110.79V66.644H112.732V67.0684H110.226V63.2219H112.732Z" fill="#AFB1B8"/>
<path d="M55.3035 39.4115L79.6385 45.993V69.0559L55.3035 62.4774V39.4115ZM53.7427 37.4456V63.5978L81.196 71.0249V44.8757L53.7427 37.4456Z" fill="#AFB1B8"/>
<path d="M68.4565 83.1653L41 75.7318V49.582L68.4565 57.0124V83.1653Z" fill="#AFB1B8"/>
<path d="M54.1978 39.1153L78.2155 45.6143L68.0014 55.346L43.9806 48.8439L54.1978 39.1153ZM53.7427 37.4456L41 49.5827L68.4565 57.0127L81.196 44.8756L53.7427 37.4456Z" fill="#AFB1B8"/>
<path d="M70.0015 81.6941L81.1962 71.0281L70.0015 67.9968V81.6941Z" fill="#AFB1B8"/>
</svg>
